<svg width="40" height="40" viewBox="0 0 40 40" fill="none" xmlns="http://www.w3.org/2000/svg">
<rect x="14" y="26" width="11" height="26" transform="rotate(-90 14 26)" fill="white"/>
<path d="M14 40V29H40V30C40 35.5228 35.5228 40 30 40H14Z" fill="white"/>
<path d="M14 29L40 15V26L34 29H14Z" fill="white"/>
<path fill-rule="evenodd" clip-rule="evenodd" d="M0 10C0 4.47715 4.47715 0 10 0H30C34.3708 0 38.0866 2.80411 39.4467 6.71147C39.8003 7.39721 40 8.17529 40 9V10V13H28V10H26V13H14V10H0Z" fill="white"/>
<path d="M0 10C0 4.47715 4.47715 0 10 0H12V40H10C4.47715 40 0 35.5228 0 30V10Z" fill="white"/>
</svg>
